<svg width="209" height="81" viewBox="0 0 209 81" fill="currentColor" xmlns="http://www.w3.org/2000/svg">
<path d="M78.981 35.8483H74.5862C74.4147 35.8483 74.2754 35.7201 74.2754 35.5624V34.4558C74.2754 34.2981 74.4147 34.1699 74.5862 34.1699H85.8209C85.9923 34.1699 86.1316 34.2981 86.1316 34.4558V35.5624C86.1316 35.7201 85.9923 35.8483 85.8209 35.8483H81.426C81.2546 35.8483 81.1153 35.9764 81.1153 36.1341V44.8476C81.1153 45.0053 80.9759 45.1335 80.8045 45.1335H79.6015C79.4301 45.1335 79.2908 45.0053 79.2908 44.8476V36.1341C79.2908 35.9764 79.1514 35.8483 78.98 35.8483H78.981Z" fill="white"/>
<path d="M95.4552 41.0778H92.523C92.3515 41.0778 92.2122 41.206 92.2122 41.3637V44.8467C92.2122 45.0044 92.0729 45.1326 91.9014 45.1326H90.6985C90.527 45.1326 90.3877 45.0044 90.3877 44.8467V34.4558C90.3877 34.2981 90.527 34.1699 90.6985 34.1699H98.1709C99.2044 34.1699 100.087 34.5102 100.815 35.1908C101.555 35.8621 101.925 36.6727 101.925 37.6243C101.925 38.576 101.555 39.4143 100.815 40.0856C100.217 40.614 99.5052 40.9312 98.6802 41.0382C98.4275 41.0705 98.3193 41.3508 98.4967 41.5205L101.781 44.6494C101.971 44.831 101.832 45.1335 101.557 45.1335H99.9884C99.9042 45.1335 99.824 45.1022 99.7648 45.0468L95.6767 41.1654C95.6186 41.1101 95.5374 41.0788 95.4532 41.0788L95.4552 41.0778ZM98.1709 39.3995C98.6982 39.3995 99.1483 39.2271 99.5242 38.8822C99.9092 38.5281 100.102 38.1085 100.102 37.6234C100.102 37.1384 99.9092 36.7197 99.5242 36.3647C99.1493 36.0198 98.6982 35.8473 98.1709 35.8473H92.523C92.3515 35.8473 92.2122 35.9755 92.2122 36.1332V39.1136C92.2122 39.2713 92.3515 39.3995 92.523 39.3995H98.1709Z" fill="white"/>
<path d="M120.571 34.3003L124.417 41.3769C124.531 41.5881 124.859 41.5872 124.974 41.3769L128.805 34.3012C128.857 34.2044 128.965 34.1426 129.083 34.1426H130.393C130.624 34.1426 130.775 34.3667 130.671 34.5566L124.973 44.9752C124.858 45.1845 124.532 45.1855 124.417 44.9752L118.705 34.5576C118.601 34.3676 118.751 34.1426 118.983 34.1426H120.292C120.409 34.1426 120.518 34.2034 120.57 34.3003H120.571Z" fill="white"/>
<path d="M145.637 45.1326H135.162C134.99 45.1326 134.851 45.0044 134.851 44.8467V34.4558C134.851 34.2981 134.99 34.1699 135.162 34.1699H145.637C145.808 34.1699 145.947 34.2981 145.947 34.4558V35.5624C145.947 35.7201 145.808 35.8483 145.637 35.8483H136.985C136.814 35.8483 136.675 35.9764 136.675 36.1341V38.5271C136.675 38.6848 136.814 38.813 136.985 38.813H142.626C142.798 38.813 142.937 38.9412 142.937 39.0989V40.2055C142.937 40.3632 142.798 40.4913 142.626 40.4913H136.985C136.814 40.4913 136.675 40.6195 136.675 40.7772V43.1702C136.675 43.3279 136.814 43.4561 136.985 43.4561H145.637C145.808 43.4561 145.947 43.5843 145.947 43.742V44.8486C145.947 45.0062 145.808 45.1344 145.637 45.1344V45.1326Z" fill="white"/>
<path d="M151.123 34.1699H152.326C152.497 34.1699 152.636 34.2981 152.636 34.4558V43.1693C152.636 43.327 152.776 43.4552 152.947 43.4552H160.489C160.66 43.4552 160.8 43.5834 160.8 43.741V44.8476C160.8 45.0053 160.66 45.1335 160.489 45.1335H151.124C150.952 45.1335 150.813 45.0053 150.813 44.8476V34.4558C150.813 34.2981 150.952 34.1699 151.124 34.1699H151.123Z" fill="white"/>
<path d="M165.054 44.8467V34.513C165.054 34.2686 165.366 34.1367 165.567 34.2963L174.589 41.4273C174.79 41.5869 175.102 41.455 175.102 41.2106V34.4558C175.102 34.2981 175.241 34.1699 175.413 34.1699H176.616C176.787 34.1699 176.926 34.2981 176.926 34.4558V44.8596C176.926 45.104 176.615 45.2359 176.413 45.0763L167.392 37.9453C167.19 37.7857 166.879 37.9176 166.879 38.162V44.8467C166.879 45.0044 166.739 45.1326 166.568 45.1326H165.365C165.194 45.1326 165.054 45.0044 165.054 44.8467Z" fill="white"/>
<path d="M192.881 45.1326H182.406C182.235 45.1326 182.095 45.0044 182.095 44.8467V34.4558C182.095 34.2981 182.235 34.1699 182.406 34.1699H192.881C193.052 34.1699 193.192 34.2981 193.192 34.4558V35.5624C193.192 35.7201 193.052 35.8483 192.881 35.8483H184.229C184.058 35.8483 183.919 35.9764 183.919 36.1341V38.5271C183.919 38.6848 184.058 38.813 184.229 38.813H189.87C190.042 38.813 190.181 38.9412 190.181 39.0989V40.2055C190.181 40.3632 190.042 40.4913 189.87 40.4913H184.229C184.058 40.4913 183.919 40.6195 183.919 40.7772V43.1702C183.919 43.3279 184.058 43.4561 184.229 43.4561H192.881C193.052 43.4561 193.192 43.5843 193.192 43.742V44.8486C193.192 45.0062 193.052 45.1344 192.881 45.1344V45.1326Z" fill="white"/>
<path d="M201.849 35.8483H197.454C197.282 35.8483 197.143 35.7201 197.143 35.5624V34.4558C197.143 34.2981 197.282 34.1699 197.454 34.1699H208.689C208.86 34.1699 208.999 34.2981 208.999 34.4558V35.5624C208.999 35.7201 208.86 35.8483 208.689 35.8483H204.294C204.122 35.8483 203.983 35.9764 203.983 36.1341V44.8476C203.983 45.0053 203.844 45.1335 203.672 45.1335H202.469C202.298 45.1335 202.158 45.0053 202.158 44.8476V36.1341C202.158 35.9764 202.019 35.8483 201.848 35.8483H201.849Z" fill="white"/>
<path d="M117.574 45.1696H115.926C115.856 45.1696 115.79 45.1336 115.757 45.0764L114.606 43.079L113.767 41.4652L111.744 37.6798C111.674 37.5479 111.47 37.5497 111.402 37.6816L109.436 41.4662L108.628 43.0799L107.522 45.0746C107.49 45.1336 107.424 45.1705 107.353 45.1705H105.717C105.575 45.1705 105.483 45.034 105.545 44.9178L111.036 34.6495C111.243 34.2604 111.845 34.2567 112.058 34.6431L117.743 44.9141C117.807 45.0312 117.716 45.1686 117.574 45.1686V45.1696Z" fill="white"/>
<path d="M40.5623 24.7962C41.4444 24.7962 42.1634 25.5151 42.1634 26.3973C42.1634 27.2794 41.4444 27.9984 40.5623 27.9984C39.6802 27.9984 38.9612 27.2794 38.9612 26.3973C38.9612 25.5151 39.6802 24.7962 40.5623 24.7962ZM40.5623 23.7305C39.0887 23.7305 37.8955 24.9236 37.8955 26.3973C37.8955 27.8709 39.0887 29.0641 40.5623 29.0641C42.0359 29.0641 43.2291 27.8709 43.2291 26.3973C43.2291 24.9236 42.0359 23.7305 40.5623 23.7305Z" fill="white"/>
<path d="M54.7023 53.8821C54.7839 53.8821 54.942 53.9025 55.0746 54.0351C55.2122 54.1677 55.2326 54.3257 55.2326 54.4073C55.2326 54.4889 55.2122 54.647 55.0796 54.7846C54.942 54.9223 54.7839 54.9427 54.7023 54.9427C54.6207 54.9427 54.4627 54.9223 54.3301 54.7897C54.1924 54.6572 54.172 54.4991 54.172 54.4175C54.172 54.3359 54.1924 54.1779 54.325 54.0402C54.4627 53.9025 54.6207 53.8821 54.7023 53.8821ZM54.7023 52.8164C54.2893 52.8164 53.8814 52.9745 53.5703 53.2906C52.9482 53.9178 52.9533 54.9274 53.5805 55.5444C53.8916 55.8554 54.2995 56.0084 54.7023 56.0084C55.1051 56.0084 55.5233 55.8503 55.8343 55.5342C56.4564 54.907 56.4513 53.8974 55.8241 53.2804C55.5131 52.9694 55.1051 52.8164 54.7023 52.8164Z" fill="white"/>
<path d="M26.4284 25.8411C26.51 25.8411 26.668 25.8615 26.8006 25.9941C27.0097 26.198 27.0097 26.5346 26.8006 26.7436C26.6629 26.8813 26.5049 26.9017 26.4233 26.9017C26.3417 26.9017 26.1836 26.8813 26.0511 26.7487C25.9134 26.6161 25.893 26.4581 25.893 26.3765C25.893 26.2949 25.9134 26.1368 26.046 25.9992C26.1836 25.8615 26.3417 25.8411 26.4233 25.8411M26.4284 24.7805C26.0154 24.7805 25.6074 24.9386 25.2964 25.2547C24.6743 25.8819 24.6794 26.8915 25.3066 27.5085C25.6176 27.8195 26.0256 27.9725 26.4284 27.9725C26.8312 27.9725 27.2493 27.8144 27.5604 27.4983C28.1825 26.8711 28.1774 25.8615 27.5502 25.2394C27.2391 24.9335 26.8312 24.7754 26.4284 24.7754V24.7805Z" fill="white"/>
<path d="M54.743 25.888C54.8246 25.888 54.9826 25.9084 55.1203 26.046C55.2529 26.1837 55.2733 26.3418 55.2733 26.4234C55.2733 26.505 55.2529 26.663 55.1152 26.7956C55.0132 26.8925 54.8858 26.9486 54.743 26.9486C54.6614 26.9486 54.4982 26.9282 54.3657 26.7905C54.2331 26.6528 54.2127 26.4948 54.2127 26.4132C54.2127 26.3316 54.2331 26.1735 54.3708 26.0409C54.4727 25.9441 54.6002 25.888 54.743 25.888ZM54.743 24.8223C54.3402 24.8223 53.9322 24.9752 53.6212 25.2812C52.994 25.8982 52.9838 26.9078 53.6059 27.535C53.9169 27.8511 54.33 28.0092 54.743 28.0092C55.156 28.0092 55.5537 27.8562 55.8648 27.5503C56.492 26.9333 56.5022 25.9237 55.8801 25.2965C55.569 24.9803 55.156 24.8223 54.743 24.8223Z" fill="white"/>
<path d="M26.3821 53.8352C26.4637 53.8352 26.6269 53.8556 26.7595 53.9933C26.8921 54.131 26.9124 54.289 26.9124 54.3706C26.9124 54.4522 26.8921 54.6103 26.7544 54.7429C26.6524 54.8397 26.5249 54.8958 26.3821 54.8958C26.3006 54.8958 26.1374 54.8754 26.0048 54.7378C25.8009 54.5287 25.8009 54.1922 26.0099 53.9882C26.1119 53.8913 26.2394 53.8352 26.3821 53.8352ZM26.3821 52.7695C25.9793 52.7695 25.5714 52.9225 25.2604 53.2284C24.6332 53.8454 24.623 54.855 25.2451 55.4822C25.5561 55.7984 25.9691 55.9564 26.3821 55.9564C26.7952 55.9564 27.1929 55.8035 27.5039 55.4975C28.1311 54.8805 28.1413 53.8709 27.5192 53.2437C27.2082 52.9276 26.7952 52.7695 26.3821 52.7695Z" fill="white"/>
<path d="M40.5628 19.9524C40.8534 19.9524 41.0931 20.1921 41.0931 20.4827C41.0931 20.7734 40.8534 21.013 40.5628 21.013C40.2722 21.013 40.0325 20.7734 40.0325 20.4827C40.0325 20.1921 40.2722 19.9524 40.5628 19.9524ZM40.5628 18.8867C39.6807 18.8867 38.9668 19.6006 38.9668 20.4827C38.9668 21.3649 39.6807 22.0787 40.5628 22.0787C41.4449 22.0787 42.1588 21.3649 42.1588 20.4827C42.1588 19.6006 41.4449 18.8867 40.5628 18.8867Z" fill="white"/>
<path d="M40.5628 59.7708C40.8534 59.7708 41.0931 60.0104 41.0931 60.3011C41.0931 60.5917 40.8534 60.8314 40.5628 60.8314C40.2722 60.8314 40.0325 60.5917 40.0325 60.3011C40.0325 60.0104 40.2722 59.7708 40.5628 59.7708ZM40.5628 58.7051C39.6807 58.7051 38.9668 59.4189 38.9668 60.3011C38.9668 61.1832 39.6807 61.8971 40.5628 61.8971C41.4449 61.8971 42.1588 61.1832 42.1588 60.3011C42.1588 59.4189 41.4449 58.7051 40.5628 58.7051Z" fill="white"/>
<path d="M36.4017 30.0032C36.6873 30.0032 36.9218 30.2378 36.9218 30.5233C36.9218 30.8089 36.6873 31.0434 36.4017 31.0434C36.1162 31.0434 35.8816 30.8089 35.8816 30.5233C35.8816 30.2378 36.1162 30.0032 36.4017 30.0032ZM36.4017 28.9375C35.5247 28.9375 34.8159 29.6463 34.8159 30.5233C34.8159 31.4003 35.5247 32.1091 36.4017 32.1091C37.2788 32.1091 37.9875 31.4003 37.9875 30.5233C37.9875 29.6463 37.2788 28.9375 36.4017 28.9375Z" fill="white"/>
<path d="M30.5785 35.8665C30.864 35.8665 31.0986 36.101 31.0986 36.3866C31.0986 36.6721 30.864 36.9067 30.5785 36.9067C30.2929 36.9067 30.0584 36.6721 30.0584 36.3866C30.0584 36.101 30.2929 35.8665 30.5785 35.8665ZM30.5785 34.8008C29.7014 34.8008 28.9927 35.5096 28.9927 36.3866C28.9927 37.2636 29.7014 37.9724 30.5785 37.9724C31.4555 37.9724 32.1643 37.2636 32.1643 36.3866C32.1643 35.5096 31.4555 34.8008 30.5785 34.8008Z" fill="white"/>
<path d="M50.3632 35.8665C50.6487 35.8665 50.8833 36.101 50.8833 36.3866C50.8833 36.6721 50.6487 36.9067 50.3632 36.9067C50.0776 36.9067 49.843 36.6721 49.843 36.3866C49.843 36.101 50.0776 35.8665 50.3632 35.8665ZM50.3632 34.8008C49.4861 34.8008 48.7773 35.5096 48.7773 36.3866C48.7773 37.2636 49.4861 37.9724 50.3632 37.9724C51.2402 37.9724 51.949 37.2636 51.949 36.3866C51.949 35.5096 51.2402 34.8008 50.3632 34.8008Z" fill="white"/>
<path d="M60.4691 40.0384C60.7547 40.0384 60.9892 40.2729 60.9892 40.5585C60.9892 40.844 60.7547 41.0786 60.4691 41.0786C60.1836 41.0786 59.949 40.844 59.949 40.5585C59.949 40.2729 60.1836 40.0384 60.4691 40.0384ZM60.4691 38.9727C59.5921 38.9727 58.8833 39.6814 58.8833 40.5585C58.8833 41.4355 59.5921 42.1443 60.4691 42.1443C61.3461 42.1443 62.0549 41.4355 62.0549 40.5585C62.0549 39.6814 61.3461 38.9727 60.4691 38.9727Z" fill="#EDA642"/>
<path d="M20.6 40.0384C20.8855 40.0384 21.1201 40.2729 21.1201 40.5585C21.1201 40.844 20.8855 41.0786 20.6 41.0786C20.3144 41.0786 20.0799 40.844 20.0799 40.5585C20.0799 40.2729 20.3144 40.0384 20.6 40.0384ZM20.6 38.9727C19.7229 38.9727 19.0142 39.6814 19.0142 40.5585C19.0142 41.4355 19.7229 42.1443 20.6 42.1443C21.477 42.1443 22.1858 41.4355 22.1858 40.5585C22.1858 39.6814 21.477 38.9727 20.6 38.9727Z" fill="white"/>
<path d="M30.5785 43.9524C30.864 43.9524 31.0986 44.187 31.0986 44.4725C31.0986 44.7581 30.864 44.9926 30.5785 44.9926C30.2929 44.9926 30.0584 44.7581 30.0584 44.4725C30.0584 44.187 30.2929 43.9524 30.5785 43.9524ZM30.5785 42.8867C29.7014 42.8867 28.9927 43.5955 28.9927 44.4725C28.9927 45.3496 29.7014 46.0583 30.5785 46.0583C31.4555 46.0583 32.1643 45.3496 32.1643 44.4725C32.1643 43.5955 31.4555 42.8867 30.5785 42.8867Z" fill="white"/>
<path d="M50.3632 43.9524C50.6487 43.9524 50.8833 44.187 50.8833 44.4725C50.8833 44.7581 50.6487 44.9926 50.3632 44.9926C50.0776 44.9926 49.843 44.7581 49.843 44.4725C49.843 44.187 50.0776 43.9524 50.3632 43.9524ZM50.3632 42.8867C49.4861 42.8867 48.7773 43.5955 48.7773 44.4725C48.7773 45.3496 49.4861 46.0583 50.3632 46.0583C51.2402 46.0583 51.949 45.3496 51.949 44.4725C51.949 43.5955 51.2402 42.8867 50.3632 42.8867Z" fill="white"/>
<path d="M44.6517 30.0032C44.9373 30.0032 45.1718 30.2378 45.1718 30.5233C45.1718 30.8089 44.9373 31.0434 44.6517 31.0434C44.3662 31.0434 44.1316 30.8089 44.1316 30.5233C44.1316 30.2378 44.3662 30.0032 44.6517 30.0032ZM44.6517 28.9375C43.7747 28.9375 43.0659 29.6463 43.0659 30.5233C43.0659 31.4003 43.7747 32.1091 44.6517 32.1091C45.5288 32.1091 46.2375 31.4003 46.2375 30.5233C46.2375 29.6463 45.5288 28.9375 44.6517 28.9375Z" fill="white"/>
<path d="M36.4017 49.8118C36.6873 49.8118 36.9218 50.0463 36.9218 50.3319C36.9218 50.6174 36.6873 50.852 36.4017 50.852C36.1162 50.852 35.8816 50.6174 35.8816 50.3319C35.8816 50.0463 36.1162 49.8118 36.4017 49.8118ZM36.4017 48.7461C35.5247 48.7461 34.8159 49.4549 34.8159 50.3319C34.8159 51.2089 35.5247 51.9177 36.4017 51.9177C37.2788 51.9177 37.9875 51.2089 37.9875 50.3319C37.9875 49.4549 37.2788 48.7461 36.4017 48.7461Z" fill="white"/>
<path d="M44.6517 49.8118C44.9373 49.8118 45.1718 50.0463 45.1718 50.3319C45.1718 50.6174 44.9373 50.852 44.6517 50.852C44.3662 50.852 44.1316 50.6174 44.1316 50.3319C44.1316 50.0463 44.3662 49.8118 44.6517 49.8118ZM44.6517 48.7461C43.7747 48.7461 43.0659 49.4549 43.0659 50.3319C43.0659 51.2089 43.7747 51.9177 44.6517 51.9177C45.5288 51.9177 46.2375 51.2089 46.2375 50.3319C46.2375 49.4549 45.5288 48.7461 44.6517 48.7461Z" fill="white"/>
<path d="M30.7371 29.0899C31.6193 29.0899 32.3382 29.8089 32.3382 30.691C32.3382 31.5731 31.6193 32.2921 30.7371 32.2921C29.855 32.2921 29.136 31.5731 29.136 30.691C29.136 29.8089 29.855 29.0899 30.7371 29.0899ZM30.7371 28.0293C29.2635 28.0293 28.0703 29.2225 28.0703 30.6961C28.0703 32.1697 29.2635 33.3629 30.7371 33.3629C32.2107 33.3629 33.4039 32.1697 33.4039 30.6961C33.4039 29.2225 32.2107 28.0293 30.7371 28.0293Z" fill="white"/>
<path d="M34.0813 23.3997C34.7748 23.3997 35.3357 23.9606 35.3357 24.6541C35.3357 25.3475 34.7748 25.9084 34.0813 25.9084C33.3878 25.9084 32.8269 25.3475 32.8269 24.6541C32.8269 23.9606 33.3878 23.3997 34.0813 23.3997ZM34.0813 22.334C32.8014 22.334 31.7612 23.3742 31.7612 24.6541C31.7612 25.9339 32.8014 26.9741 34.0813 26.9741C35.3612 26.9741 36.4014 25.9339 36.4014 24.6541C36.4014 23.3742 35.3612 22.334 34.0813 22.334Z" fill="white"/>
<path d="M34.0813 54.718C34.7748 54.718 35.3357 55.2789 35.3357 55.9724C35.3357 56.6659 34.7748 57.2268 34.0813 57.2268C33.3878 57.2268 32.8269 56.6659 32.8269 55.9724C32.8269 55.2789 33.3878 54.718 34.0813 54.718ZM34.0813 53.6523C32.8014 53.6523 31.7612 54.6926 31.7612 55.9724C31.7612 57.2523 32.8014 58.2925 34.0813 58.2925C35.3612 58.2925 36.4014 57.2523 36.4014 55.9724C36.4014 54.6926 35.3612 53.6523 34.0813 53.6523Z" fill="white"/>
<path d="M24.7307 32.6243C25.4242 32.6243 25.9851 33.1852 25.9851 33.8787C25.9851 34.5721 25.4242 35.133 24.7307 35.133C24.0372 35.133 23.4763 34.5721 23.4763 33.8787C23.4763 33.1852 24.0372 32.6243 24.7307 32.6243ZM24.7307 31.5586C23.4509 31.5586 22.4106 32.5988 22.4106 33.8787C22.4106 35.1585 23.4509 36.1987 24.7307 36.1987C26.0106 36.1987 27.0508 35.1585 27.0508 33.8787C27.0508 32.5988 26.0106 31.5586 24.7307 31.5586Z" fill="white"/>
<path d="M24.7307 45.6927C25.4242 45.6927 25.9851 46.2535 25.9851 46.947C25.9851 47.6405 25.4242 48.2014 24.7307 48.2014C24.0372 48.2014 23.4763 47.6405 23.4763 46.947C23.4763 46.2535 24.0372 45.6927 24.7307 45.6927ZM24.7307 44.627C23.4509 44.627 22.4106 45.6672 22.4106 46.947C22.4106 48.2269 23.4509 49.2671 24.7307 49.2671C26.0106 49.2671 27.0508 48.2269 27.0508 46.947C27.0508 45.6672 26.0106 44.627 24.7307 44.627Z" fill="white"/>
<path d="M46.8909 23.3997C47.5843 23.3997 48.1452 23.9606 48.1452 24.6541C48.1452 25.3475 47.5843 25.9084 46.8909 25.9084C46.1974 25.9084 45.6365 25.3475 45.6365 24.6541C45.6365 23.9606 46.1974 23.3997 46.8909 23.3997ZM46.8909 22.334C45.611 22.334 44.5708 23.3742 44.5708 24.6541C44.5708 25.9339 45.611 26.9741 46.8909 26.9741C48.1707 26.9741 49.2109 25.9339 49.2109 24.6541C49.2109 23.3742 48.1707 22.334 46.8909 22.334Z" fill="white"/>
<path d="M46.8909 54.718C47.5843 54.718 48.1452 55.2789 48.1452 55.9724C48.1452 56.6659 47.5843 57.2268 46.8909 57.2268C46.1974 57.2268 45.6365 56.6659 45.6365 55.9724C45.6365 55.2789 46.1974 54.718 46.8909 54.718ZM46.8909 53.6523C45.611 53.6523 44.5708 54.6926 44.5708 55.9724C44.5708 57.2523 45.611 58.2925 46.8909 58.2925C48.1707 58.2925 49.2109 57.2523 49.2109 55.9724C49.2109 54.6926 48.1707 53.6523 46.8909 53.6523Z" fill="white"/>
<path d="M56.2478 32.6243C56.9413 32.6243 57.5022 33.1852 57.5022 33.8787C57.5022 34.5721 56.9413 35.133 56.2478 35.133C55.5543 35.133 54.9934 34.5721 54.9934 33.8787C54.9934 33.1852 55.5543 32.6243 56.2478 32.6243ZM56.2478 31.5586C54.9679 31.5586 53.9277 32.5988 53.9277 33.8787C53.9277 35.1585 54.9679 36.1987 56.2478 36.1987C57.5277 36.1987 58.5679 35.1585 58.5679 33.8787C58.5679 32.5988 57.5277 31.5586 56.2478 31.5586Z" fill="white"/>
<path d="M56.2478 45.6927C56.9413 45.6927 57.5022 46.2535 57.5022 46.947C57.5022 47.6405 56.9413 48.2014 56.2478 48.2014C55.5543 48.2014 54.9934 47.6405 54.9934 46.947C54.9934 46.2535 55.5543 45.6927 56.2478 45.6927ZM56.2478 44.627C54.9679 44.627 53.9277 45.6672 53.9277 46.947C53.9277 48.2269 54.9679 49.2671 56.2478 49.2671C57.5277 49.2671 58.5679 48.2269 58.5679 46.947C58.5679 45.6672 57.5277 44.627 56.2478 44.627Z" fill="white"/>
<path d="M26.5814 38.8645C27.4635 38.8645 28.1825 39.5835 28.1825 40.4656C28.1825 41.3478 27.4635 42.0667 26.5814 42.0667C25.6992 42.0667 24.9803 41.3478 24.9803 40.4656C24.9803 39.5835 25.6992 38.8645 26.5814 38.8645ZM26.5814 37.7988C25.1077 37.7988 23.9146 38.992 23.9146 40.4656C23.9146 41.9393 25.1077 43.1324 26.5814 43.1324C28.055 43.1324 29.2482 41.9393 29.2482 40.4656C29.2482 38.992 28.055 37.7988 26.5814 37.7988Z" fill="white"/>
<path d="M50.389 29.0899C51.2711 29.0899 51.9901 29.8089 51.9901 30.691C51.9901 31.5731 51.2711 32.2921 50.389 32.2921C49.5068 32.2921 48.7879 31.5731 48.7879 30.691C48.7879 29.8089 49.5068 29.0899 50.389 29.0899ZM50.389 28.0293C48.9153 28.0293 47.7222 29.2225 47.7222 30.6961C47.7222 32.1697 48.9153 33.3629 50.389 33.3629C51.8626 33.3629 53.0558 32.1697 53.0558 30.6961C53.0558 29.2225 51.8626 28.0293 50.389 28.0293Z" fill="white"/>
<path d="M54.5447 38.8645C55.4269 38.8645 56.1458 39.5835 56.1458 40.4656C56.1458 41.3478 55.4269 42.0667 54.5447 42.0667C53.6626 42.0667 52.9436 41.3478 52.9436 40.4656C52.9436 39.5835 53.6626 38.8645 54.5447 38.8645ZM54.5447 37.7988C53.0711 37.7988 51.8779 38.992 51.8779 40.4656C51.8779 41.9393 53.0711 43.1324 54.5447 43.1324C56.0184 43.1324 57.2115 41.9393 57.2115 40.4656C57.2115 38.992 56.0184 37.7988 54.5447 37.7988Z" fill="url(#paint0_radial_0_1)"/>
<path d="M40.5623 52.9876C41.4444 52.9876 42.1634 53.7065 42.1634 54.5887C42.1634 55.4708 41.4444 56.1898 40.5623 56.1898C39.6802 56.1898 38.9612 55.4708 38.9612 54.5887C38.9612 53.7065 39.6802 52.9876 40.5623 52.9876ZM40.5623 51.9219C39.0887 51.9219 37.8955 53.1151 37.8955 54.5887C37.8955 56.0623 39.0887 57.2555 40.5623 57.2555C42.0359 57.2555 43.2291 56.0623 43.2291 54.5887C43.2291 53.1151 42.0359 51.9219 40.5623 51.9219Z" fill="white"/>
<path d="M30.7371 48.6946C31.6193 48.6946 32.3382 49.4136 32.3382 50.2957C32.3382 51.1778 31.6193 51.8968 30.7371 51.8968C29.855 51.8968 29.136 51.1778 29.136 50.2957C29.136 49.4136 29.855 48.6946 30.7371 48.6946ZM30.7371 47.6289C29.2635 47.6289 28.0703 48.8221 28.0703 50.2957C28.0703 51.7693 29.2635 52.9625 30.7371 52.9625C32.2107 52.9625 33.4039 51.7693 33.4039 50.2957C33.4039 48.8221 32.2107 47.6289 30.7371 47.6289Z" fill="white"/>
<path d="M50.389 48.6946C51.2711 48.6946 51.9901 49.4136 51.9901 50.2957C51.9901 51.1778 51.2711 51.8968 50.389 51.8968C49.5068 51.8968 48.7879 51.1778 48.7879 50.2957C48.7879 49.4136 49.5068 48.6946 50.389 48.6946ZM50.389 47.6289C48.9153 47.6289 47.7222 48.8221 47.7222 50.2957C47.7222 51.7693 48.9153 52.9625 50.389 52.9625C51.8626 52.9625 53.0558 51.7693 53.0558 50.2957C53.0558 48.8221 51.8626 47.6289 50.389 47.6289Z" fill="white"/>
<path d="M54.5697 43.1327C56.0313 43.1327 57.2162 41.9478 57.2162 40.4863C57.2162 39.0247 56.0313 37.8398 54.5697 37.8398C53.1082 37.8398 51.9233 39.0247 51.9233 40.4863C51.9233 41.9478 53.1082 43.1327 54.5697 43.1327Z" fill="#EDA642"/>
<defs>
<radialGradient id="paint0_radial_0_1" cx="0" cy="0" r="1" gradientUnits="userSpaceOnUse" gradientTransform="translate(40.8487 40.5268) scale(21.0336)">
<stop stop-color="#4BA9DD"/>
<stop offset="1" stop-color="#5BC1EA"/>
</radialGradient>
</defs>
</svg>
